# xmcd CD database file
#
# Track frame offsets:
#	150
#	20175
#	33651
#	54743
#	71109
#	90203
#	114891
#	128150
#	148401
#	163234
#
# Disc length: 2546 seconds
#
# Revision: 0
# Processed by: cddbd v1.5.2PL0 Copyright (c) Steve Scherf et al.
# Submitted via: CDex 1.51
#
DISCID=9209f00a
DTITLE=Bill Durst - The Great Willy Mammoth
DYEAR=2009
DGENRE=Blues
TTITLE0=River
TTITLE1=Cafe On The Gaspe
TTITLE2=Beautiful
TTITLE3=The Great Willy Mammoth
TTITLE4=Flower Song
TTITLE5=Wandering Blues
TTITLE6=Radio - Soul Survivor
TTITLE7=Homeless
TTITLE8=39 Days
TTITLE9=All The Blues In The World
EXTD=YEAR: 2009
EXTT0=
EXTT1=
EXTT2=
EXTT3=
EXTT4=
EXTT5=
EXTT6=
EXTT7=
EXTT8=
EXTT9=
PLAYORDER=
